#!OML:ASF H:\BabyWalks\Project 1\Capture day 1\Session 1\baby.ASF
:FULLY-SPECIFIED
:DEGREES
833
root 32.0932 17.2327 -6.0187 -175.259 65.7245 -172.303
lowerback 15.2603 1.04151 2.71523
upperback 6.32205 2.224 0.564689
thorax -1.78227 1.33269 -1.31096
lowerneck -2.32015 -1.05751 4.72499
upperneck 2.1086 -1.48325 -3.33836
head 0.991945 -0.746864 -1.87714
rclavicle -8.46077e-015 -2.16178e-014
rhumerus -42.852 7.55389 -80.8328
rradius 47.2213
rwrist 4.25802
rhand -8.14638 -15.7724
rfingers 7.12502
rthumb 17.768 -44.9807
lclavicle -8.46077e-015 -2.16178e-014
lhumerus -42.6408 -5.91281 76.7763
lradius 51.3953
lwrist 1.78618
lhand 1.27502 11.7701
lfingers 7.12502
lthumb 26.811 39.8896
rfemur 22.5964 10.7439 26.4603
rtibia 1.90833e-014
rfoot -17.9193 -6.84566
rtoes 6.80077
lfemur -23.0971 1.78234 -12.118
ltibia 39.4313
lfoot -15.1853 -4.64995
ltoes -7.99757
834
root 32.0927 17.2327 -6.0177 -175.3 65.7192 -172.343
lowerback 15.2577 1.04018 2.71763
upperback 6.3107 2.22193 0.572023
thorax -1.79319 1.33091 -1.3045
lowerneck -2.33957 -1.05227 4.72988
upperneck 2.13726 -1.4762 -3.36246
head 1.00459 -0.74356 -1.88633
rclavicle 1.56543e-014 7.45443e-017
rhumerus -42.7805 7.70735 -80.9569
rradius 47.5575
rwrist 4.06717
rhand -8.28824 -15.7544
rfingers 7.12502
rthumb 17.6315 -44.9749
lclavicle 1.56543e-014 7.45443e-017
lhumerus -42.6024 -5.9414 76.7231
lradius 51.5488
lwrist 1.91476
lhand 1.0705 11.7415
lfingers 7.12502
lthumb 26.6153 39.8909
rfemur 22.6003 10.7361 26.4468
rtibia 0
rfoot -17.921 -6.85171
rtoes 6.77421
lfemur -23.0893 1.78526 -12.1343
ltibia 39.4144
lfoot -15.1745 -4.66178
ltoes -7.98824
835
root 32.0924 17.2327 -6.01694 -175.35 65.7154 -172.392
lowerback 15.2534 1.03894 2.71454
upperback 6.30146 2.21927 0.579433
thorax -1.80116 1.32888 -1.29466
lowerneck -2.35786 -1.04852 4.72477
upperneck 2.16288 -1.47108 -3.37537
head 1.01606 -0.741174 -1.89005
rclavicle 5.99895e-014 -2.48481e-014
rhumerus -42.7114 7.85743 -81.0801
rradius 47.9026
rwrist 3.86588
rhand -8.44023 -15.7371
rfingers 7.12502
rthumb 17.4852 -44.9707
lclavicle 5.99895e-014 -2.48481e-014
lhumerus -42.5649 -5.99469 76.6854
lradius 51.6957
lwrist 2.04569
lhand 0.868433 11.7231
lfingers 7.12502
lthumb 26.4219 39.9017
rfemur 22.6068 10.7298 26.4291
rtibia 2.8625e-014
rfoot -17.9242 -6.85512
rtoes 6.74672
lfemur -23.0785 1.78814 -12.1554
ltibia 39.397
lfoot -15.164 -4.67264
ltoes -7.97771
836
root 32.092 17.2327 -6.01629 -175.403 65.7135 -172.442
lowerback 15.2485 1.03786 2.70842
upperback 6.29319 2.21642 0.587
thorax -1.80796 1.32676 -1.28288
lowerneck -2.37034 -1.04579 4.72531
upperneck 2.18197 -1.46721 -3.39275
head 1.02439 -0.739426 -1.89613
rclavicle -9.14223e-014 1.78658e-014
rhumerus -42.6462 8.0039 -81.2039
rradius 48.2557
rwrist 3.65621
rhand -8.60394 -15.7183
rfingers 7.12502
rthumb 17.3276 -44.9659
lclavicle -9.14223e-014 1.78658e-014
lhumerus -42.5314 -6.06913 76.6602
lradius 51.8375
lwrist 2.17244
lhand 0.678125 11.7118
lfingers 7.12502
lthumb 26.2397 39.9176
rfemur 22.6144 10.7252 26.4107
rtibia 8.26944e-014
rfoot -17.9278 -6.85522
rtoes 6.70707
lfemur -23.0659 1.79057 -12.1774
ltibia 39.3794
lfoot -15.1536 -4.68217
ltoes -7.97385
837
root 32.0918 17.2326 -6.01579 -175.469 65.7128 -172.502
lowerback 15.2441 1.03735 2.69725
upperback 6.28595 2.21361 0.592543
thorax -1.81401 1.32467 -1.27038
lowerneck -2.37284 -1.04229 4.72981
upperneck 2.19304 -1.46221 -3.40766
head 1.02849 -0.737026 -1.90188
rclavicle -3.52222e-015 -9.55409e-015
rhumerus -42.5891 8.14818 -81.3319
rradius 48.6171
rwrist 3.43509
rhand -8.77681 -15.7008
rfingers 7.12502
rthumb 17.1613 -44.9629
lclavicle -3.52222e-015 -9.55409e-015
lhumerus -42.5018 -6.16282 76.6443
lradius 51.9718
lwrist 2.28683
lhand 0.507144 11.6998
lfingers 7.12502
lthumb 26.076 39.9298
rfemur 22.6274 10.7213 26.3879
rtibia -1.59028e-014
rfoot -17.9321 -6.85683
rtoes 6.67076
lfemur -23.047 1.79315 -12.2043
ltibia 39.3609
lfoot -15.1454 -4.69134
ltoes -7.95508
838
root 32.0916 17.2325 -6.01541 -175.538 65.7118 -172.564
lowerback 15.2397 1.03532 2.68319
upperback 6.27983 2.2085 0.598233
thorax -1.81912 1.32146 -1.2557
lowerneck -2.37084 -1.03812 4.73826
upperneck 2.19829 -1.45632 -3.42339
head 1.02999 -0.73416 -1.90849
rclavicle -2.66837e-014 7.10655e-015
rhumerus -42.5366 8.29652 -81.4638
rradius 48.9843
rwrist 3.20479
rhand -8.95375 -15.6818
rfingers 7.12502
rthumb 16.991 -44.9586
lclavicle -2.66837e-014 7.10655e-015
lhumerus -42.4726 -6.26255 76.6364
lradius 52.0972
lwrist 2.38427
lhand 0.362669 11.6941
lfingers 7.12502
lthumb 25.9377 39.9445
rfemur 22.6421 10.7171 26.3642
rtibia 4.77083e-014
rfoot -17.9362 -6.85643
rtoes 6.64967
lfemur -23.0264 1.79485 -12.2321
ltibia 39.3426
lfoot -15.1381 -4.70115
ltoes -7.93804
